<svg xmlns="http://www.w3.org/2000/svg" viewBox="0 0 12.00 12.00">
  <path d="M 6 11 C 5.949 11.002 5.872 11.012 5.875 10.955 C 5.777 9.969 5.739 9.013 5.866 8.005 C 5.076 6.922 3.89 6.029 2.016 5.66 C 2.655 5.737 3.45 5.936 4.459 6.572 C 4.483 4.76 2.13 5.022 1.002 5.586 C 2.711 5.987 3.949 9.21 4.459 6.572 C 5.128 6.982 5.469 7.392 5.898 7.88 C 6.05 7.273 6.12 7.04 6.481 6.484 C 2.606 2.858 10.082 3.32 10.555 0.989 C 11.594 5.316 9.529 8.569 6.634 6.593 C 6.96 6.081 7.259 5.736 7.803 5.301 C 8.411 5.428 8.819 5.636 9.481 5.337 C 8.774 5.482 8.393 5.292 7.939 5.174 C 8.233 4.89 8.529 4.633 8.864 4.376 C 9.336 4.448 9.58 4.337 9.896 4.215 C 9.524 4.304 9.197 4.398 8.941 4.309 C 9.73 3.527 10.251 3.271 10.46 2.092 C 10.124 3.249 9.691 3.443 8.858 4.259 C 8.819 4.021 8.858 3.837 8.936 3.571 C 8.814 3.81 8.703 4.004 8.769 4.315 C 8.4437 4.5777 8.1183 4.8403 7.793 5.103 C 7.654 4.731 7.554 4.331 7.571 3.754 C 7.46 4.215 7.432 4.576 7.665 5.208 C 6.649 6.113 6.722 6.102 6.481 6.484 C 6.529 6.524 6.572 6.551 6.634 6.593 C 5.648 7.976 6.034 9.97 6.097 10.957 C 6.098 11.01 6.034 10.999 6 11 Z" fill="#000000"/>
</svg>